<svg xmlns="http://www.w3.org/2000/svg" viewBox="0 0 916.17 605.67"><defs><style>.cls-1{fill:#e9611c;}.cls-2{fill:#fff;}</style></defs><title>JC-white</title><g id="Layer_2" data-name="Layer 2"><g id="Layer_1-2" data-name="Layer 1"><path class="cls-1" d="M712.69,302.28c7.64-10.71,17.53-19.08,28.12-26.65,2.82-2,3.4-3.43,1.76-6.72-17.52-35.29-22.21-72.47-15.92-111.2a16,16,0,0,0,.06-5.19,406.92,406.92,0,0,0-43.17,63.36,402.06,402.06,0,0,0-30.82,70.6,116.67,116.67,0,0,1,3.82-44.22c2.1-7.68,1.59-13.82-2.14-21.1-13.73-26.76-19.68-55.61-20.73-85.59a295.45,295.45,0,0,1,4.11-59.63c.27-1.58.31-3.21.45-4.84-2.54-.42-3.15,1.52-4.07,2.67-32.5,40.16-56.25,84.65-66.81,135.62-1.42,6.83-2.27,13.78-3.38,20.68a16.15,16.15,0,0,0,1.48,9.66,236.84,236.84,0,0,0,24.36,41.73c.94,1.27,2.55,2.31,1.76,5.06-45.78-39.65-66.18-91.85-76.71-150.37a267.75,267.75,0,0,0-12.75,36.79C494,201.91,490,231.52,489,261.58c-.1,3.26,1.32,4.6,3.95,6,12.2,6.28,23.54,13.75,32.11,24.76a7.63,7.63,0,0,0-.66.73c-18.07-10.09-36.75-18.68-57.13-23.07-22.77-4.9-45.72-5.71-70-3.29a211.71,211.71,0,0,1,33.11,29.89c9.6,10.84,18.14,22.43,24.11,36-35-30.24-73.82-54.59-115.37-74.71l.31-1.22c7.32-1.56,14.64-3.09,21.95-4.7a170.39,170.39,0,0,1,22.69-3.4c27.64-2.3,54.86-.07,81.46,8,4,1.21,3.42-.84,3.54-3.27,2.64-56.14,15.89-109.44,43.06-158.9,5.84-10.63,12.79-20.65,19.22-30.95a2.08,2.08,0,0,1,1.1-1.09c-.57,44.52,6.72,87.79,17,130.84,22.08-79,66.93-142.3,132.21-193.17-2.65,7.45-4.74,13.88-7.2,20.17A292.5,292.5,0,0,0,654,113.33c-1.43,29.57,1.9,58.49,12.83,86.24.59,1.52,1.3,3,2.47,5.66,26.4-61.12,70.47-106.46,120.5-146.85a4.71,4.71,0,0,0,.6.58c-7.85,14.48-15.76,28.92-23.53,43.44-17.17,32-25.06,66.15-21.83,102.5a151.35,151.35,0,0,0,15.11,54c1.42,2.87,2.48,3.27,5.39,1.78,24.57-12.56,51.11-18.64,78.07-23.25,4.24-.72,8.47-1.54,13.1-2.39-.6,2.52-2.18,3.76-3.37,5.25-18.49,23-39.51,43.75-58.47,66.32a254,254,0,0,0-27.06,38.29,4.58,4.58,0,0,1-1.62,1.79c1.57-15.75,7.22-30.15,14.13-44.12a230.79,230.79,0,0,1,25.56-40.18c-35.08,5.34-66.27,17.29-92.37,40.81ZM638.76,69.64l-.48-.74a5.77,5.77,0,0,0-.52.77c-.34.64.11.78.58.69C638.51,70.33,638.61,69.9,638.76,69.64Z"/><path class="cls-2" d="M613.45,470.45c29,0,58,.09,87-.1,3.83,0,4.51,1.06,4.59,4.69.5,23.51-1.76,46.58-11.2,68.39-12.22,28.23-31.78,49-62.68,55.75-33.85,7.37-61.67-4.49-83.2-30.88-18.91-23.17-25.36-50.78-26.18-80-.13-4.49.21-9-.1-13.48-.24-3.5.84-4.44,4.36-4.41,22.82.16,45.64.08,68.47.08Zm0,25h-21q-21,0-42,0c-1.67,0-3.58-.7-3.22,2.6,1.87,17.08,6.13,33.31,15.42,48,25.47,40.27,76.71,40.15,101.79-.32,8.67-14,12.8-29.45,14.64-45.68.43-3.75-.27-4.76-4.18-4.72C654.44,495.57,634,495.46,613.46,495.46Z"/><path class="cls-2" d="M326.89,330.2a90.38,90.38,0,0,1,59.17-4.8,63,63,0,0,1,15.73,6.16c14.35,8,22.48,19.91,22.63,36.68.19,22.81.21,45.62.57,68.43.07,4-1.55,4.75-4.91,4.67-5.5-.14-11-.25-16.49,0-3.3.17-3.76-1.17-3.76-4-.07-21.81-.33-43.63-.47-65.44-.07-11.27-3-16.29-13.42-20.19-15.58-5.85-31.25-5.82-46.71.69-8.29,3.49-12.67,9.23-12.47,18.87.43,21.32.06,42.65.21,64,0,3.39-.65,4.7-4.3,4.47a141.75,141.75,0,0,0-16.49,0c-3.53.2-4.41-.91-4.38-4.39.18-18.66.08-37.32.08-56q0-88-.11-175.92c0-4.29,1.17-5.38,5.23-5a82.61,82.61,0,0,0,14,0c4.64-.42,6.08.74,6,5.76-.25,40-.14,80-.14,120Z"/><path class="cls-2" d="M794.4,547.46c-14,0-28,.17-42-.1-4.41-.09-4.72,1.12-3.63,5,8.55,30.34,43.41,34,62.11,21.73a14.36,14.36,0,0,1,8.76-2.49c5.66.15,11.33.21,17,0,3.17-.13,3.67,1.22,3.2,3.85-1.29,7.12-5.42,12.48-10.91,16.75-33.53,26.08-97.43,15.73-106.17-42.45-2.81-18.66-1-36.51,10-52.56,14.13-20.69,41.35-30.33,66.2-23.48,23.21,6.39,40.06,27.32,41.9,52.24.43,5.8.25,11.64.61,17.44.19,3.21-.73,4.25-4.11,4.21C823.05,547.34,808.72,547.46,794.4,547.46Zm20-25c.1-.39.2-.57.17-.71-3-14.42-15.37-24.55-30.68-25.22s-30.49,9.44-34.7,22.85c-.82,2.59-.13,3.13,2.37,3.12C772.55,522.42,793.51,522.45,814.42,522.45Z"/><path class="cls-2" d="M115.43,301.51v96c0,25.1-11.79,40.43-36.71,45.19-26.91,5.15-50.19-2-67.47-24.26C3.79,408.79.92,397.35,0,385.35c-.2-2.59.68-3.54,3.33-3.48,6,.15,12,.19,18,0,2.73-.1,3.78.68,3.94,3.49C27,414,57.18,423.8,76.7,417.46c12.16-4,13.79-9.74,13.75-18.53-.21-46.65-.07-93.3-.11-139.95,0-20-.09-40-.39-60,0-3.77.94-4.89,4.69-4.65a137.46,137.46,0,0,0,16.49,0c3.48-.2,4.41,1.13,4,4.21a4.17,4.17,0,0,0,0,.5V301.51Z"/><path class="cls-2" d="M499.89,535.66c0,33.39-22.32,60.1-53.92,65.25-25.34,4.13-51.32-10.41-63.45-35.5-15-31-3.73-69.8,25.11-86.62,37.35-21.78,84.48,1.74,91.31,45.57A55.05,55.05,0,0,1,499.89,535.66Zm-25-.11a28.94,28.94,0,0,0-1.1-9.17c-3.66-14.58-12.09-25.21-26.79-29.49-13.54-3.94-25.37.21-34.89,10.3-14.5,15.36-15,40-1.33,56.12,6.89,8.15,15.62,12.87,26.38,13.11C457.75,576.87,474.79,558.63,474.89,535.55Z"/><path class="cls-2" d="M212.49,443.63c-34.39,0-61.75-26.8-61.77-60.5,0-34.07,27.25-60.86,61.93-60.85,34.22,0,61.8,26.9,62.08,60.51C275,416.24,247,443.62,212.49,443.63Zm-.13-25c20.57,0,37.39-16.06,37.33-35.69S233,347.37,212.79,347.3c-20.43-.08-37,15.64-37.06,35.19C175.65,402.64,191.83,418.59,212.36,418.61Z"/><path class="cls-2" d="M627.35,400.46c0-10.66.14-21.32,0-32-.25-15.43,6.43-27.48,19.48-34.8,27.42-15.41,55.62-15.62,83.15-.23,13.49,7.54,20,20,19.79,35.71-.26,22.64-.51,45.28-.62,67.92,0,3.06-.52,4.5-4,4.3a145.74,145.74,0,0,0-17,0c-4,.24-4.14-1.75-4.1-4.79.31-21.8.26-43.61.83-65.41.24-9.32-3.81-15.25-12-18.7-16.3-6.87-32.73-6.76-48.94.17-7.82,3.34-11.89,9-11.66,18.32.53,21.31.08,42.64.25,63.95,0,3.61-.7,5.05-4.63,4.79a133.26,133.26,0,0,0-16.48,0c-3.47.2-4.15-1.14-4.11-4.27C627.44,423.78,627.35,412.12,627.35,400.46Z"/><path class="cls-2" d="M471.89,400.31c0-10,.2-20-.05-30-.44-17.89,7.57-31.05,23.21-38.75,25.8-12.7,52.12-12.78,77.67.71,15.76,8.32,22.27,22.15,21.62,40.13-.76,21.14-.47,42.32-.34,63.47,0,4.21-.7,6-5.35,5.54a133.26,133.26,0,0,0-16-.06c-2.59.07-3.88-.33-3.84-3.44.27-22.49.23-45,.58-67.47.11-7.19-2.12-12.85-8.59-16.16-18.31-9.36-36.77-9.18-55.07,0-6.37,3.19-9,8.69-8.93,16,.23,21.66,0,43.33.16,65,0,3.4-.66,4.68-4.31,4.46a163.19,163.19,0,0,0-17,0c-3.13.14-3.91-.84-3.86-3.9C472,424,471.89,412.14,471.89,400.31Z"/><path class="cls-2" d="M340.4,502.3a31.62,31.62,0,0,1-19.16-4.54c-20.28-11.79-45.37,0-51.85,23.41-5.88,21.27,1.75,42.88,19.25,52.69,12.44,7,25.37,9,38.14.37,1.42-1,2.85-.75,4.3-.76,6.17,0,12.35.26,18.49-.11,4.38-.27,4.69,1.75,3.9,5-1.69,7-6.17,12.12-11.83,16.15-19.7,14-48,13.65-69.36-1.26-24.63-17.17-32.75-41.66-28.61-70.35,4-27.48,19.39-46.17,46.8-52.83,21.5-5.22,40.92-.16,56.7,16.08a24.07,24.07,0,0,1,6.73,12.59c.44,2.48-.12,3.74-3,3.57C347.41,502.14,343.9,502.3,340.4,502.3Z"/><path class="cls-2" d="M791.55,328.92c9.65,0,18.3.12,27-.07,2.56-.06,3.39,1.47,4.52,3.13,8.37,12.29,17.75,23.68,29.13,33.38,3.43,2.92,5.31,3.47,8.27-.83,7.45-10.83,15.33-21.36,22.45-32.42.94-1.46,1.56-3.25,4-3.23,9.42.1,18.85,0,29.32,0-8.61,11-15.39,22-22.79,32.54-19.59,28-40.69,54.79-65.38,78.59a7.82,7.82,0,0,1-6.08,2.48c-10.16-.17-20.32-.07-30.75-.07.18-2.2,2-3.06,3.14-4.24,14.71-15,30-29.29,43.6-45.36,2.65-3.14,3.13-4.58-.58-7.51C818.14,370.17,804.26,350.57,791.55,328.92Z"/><path class="cls-2" d="M534.49,413.62c-7.49,0-12.89-4.63-12.85-10.92s5.59-10.8,13-10.78c7.21,0,13.1,5,13.05,11S541.79,413.67,534.49,413.62Z"/><path class="cls-2" d="M689.88,413.63c-7.44,0-13-4.62-13-10.82s5.67-10.88,13-10.89,13,4.75,13,10.89S697.29,413.63,689.88,413.63Z"/><path class="cls-1" d="M713.53,303.2,712,304.55a4.28,4.28,0,0,0-.72-.63l1.43-1.64Z"/><path class="cls-1" d="M710.89,305.46c-.1.69-.47,1.08-1.19.89-.18,0-.29-.37-.43-.57l1.6-.34Z"/><path class="cls-1" d="M789.82,58.38c.12-.43.31-.88.81-.52.13.09-.13.72-.21,1.1A4.71,4.71,0,0,1,789.82,58.38Z"/><path class="cls-1" d="M525.05,292.3c.45.17.87.46.49.93-.12.14-.75-.12-1.15-.2A7.63,7.63,0,0,1,525.05,292.3Z"/><path class="cls-1" d="M710.87,305.44c-.41-.65,0-1.08.39-1.52a4.28,4.28,0,0,1,.72.63,1,1,0,0,1-1.09.91Z"/></g></g></svg>